<?xml version="1.0" encoding="utf-8"?>
<!-- Generator: Adobe Illustrator 16.0.4, SVG Export Plug-In . SVG Version: 6.00 Build 0)  -->
<!DOCTYPE svg PUBLIC "-//W3C//DTD SVG 1.1//EN" "http://www.w3.org/Graphics/SVG/1.1/DTD/svg11.dtd">
<svg version="1.1" id="图层_1" xmlns="http://www.w3.org/2000/svg" xmlns:xlink="http://www.w3.org/1999/xlink" x="0px" y="0px"
	 width="350px" height="30px" viewBox="0 0 350 30" enable-background="new 0 0 350 30" xml:space="preserve">
<g>
	<path fill="#FFFFFF" d="M6.331,25.469H4.477v-25.47h1.854V25.469z"/>
	<path fill="#FFFFFF" d="M11.654,25.625V14.971h0.4v2.637c0.371-0.801,0.921-1.438,1.65-1.909c0.729-0.472,1.533-0.708,2.412-0.708
		c1.237,0,2.289,0.433,3.154,1.299c0.866,0.865,1.299,1.92,1.299,3.164v6.172H20.18v-6.172c0-1.133-0.394-2.094-1.182-2.881
		c-0.788-0.788-1.748-1.182-2.881-1.182s-2.093,0.392-2.881,1.177c-0.788,0.784-1.182,1.747-1.182,2.886v6.172H11.654z"/>
	<path fill="#FFFFFF" d="M21.43,25.625V14.971l0.205,0.02h6.592v0.4H21.83v4.697h6.396v0.4H21.83v5.137H21.43z"/>
	<path fill="#FFFFFF" d="M29.086,20.332c0-1.49,0.518-2.754,1.553-3.789s2.298-1.553,3.789-1.553s2.754,0.518,3.789,1.553
		s1.553,2.299,1.553,3.789s-0.518,2.752-1.553,3.784s-2.298,1.548-3.789,1.548s-2.754-0.516-3.789-1.548
		S29.086,21.822,29.086,20.332z M29.486,20.332c0,1.373,0.48,2.541,1.44,3.501s2.127,1.44,3.501,1.44s2.541-0.48,3.501-1.44
		s1.44-2.128,1.44-3.501s-0.48-2.541-1.44-3.501c-0.96-0.96-2.127-1.44-3.501-1.44s-2.541,0.48-3.501,1.44
		C29.966,17.791,29.486,18.959,29.486,20.332z"/>
	<path fill="#FFFFFF" d="M40.619,25.625V14.971l0.205,0.02h6.035c0.762,0,1.413,0.27,1.953,0.811
		c0.541,0.541,0.811,1.188,0.811,1.943c0,0.762-0.27,1.412-0.811,1.953s-1.191,0.811-1.953,0.811H44.74l5.117,5.117h-0.557
		l-5.117-5.117H41.02v5.117H40.619z M41.02,20.107h5.84c0.651,0,1.208-0.23,1.67-0.693s0.693-1.02,0.693-1.67
		s-0.231-1.206-0.693-1.665s-1.019-0.688-1.67-0.688h-5.84V20.107z"/>
	<path fill="#FFFFFF" d="M50.717,25.625V14.971h0.4v1.338c0.534-0.879,1.322-1.318,2.363-1.318c0.56,0,1.073,0.156,1.538,0.469
		s0.806,0.729,1.021,1.25c0.202-0.533,0.539-0.954,1.011-1.26s0.995-0.459,1.567-0.459c0.762,0,1.416,0.273,1.963,0.82
		s0.82,1.201,0.82,1.963v7.852H61v-7.852c0-0.65-0.234-1.211-0.703-1.68s-1.029-0.703-1.68-0.703c-0.664,0-1.227,0.226-1.689,0.679
		c-0.462,0.452-0.693,1.011-0.693,1.675v7.881h-0.4v-7.881c0-0.65-0.229-1.206-0.688-1.665s-1.014-0.688-1.665-0.688
		s-1.208,0.229-1.67,0.688s-0.693,1.015-0.693,1.665v7.881H50.717z"/>
	<path fill="#FFFFFF" d="M62.25,20.312c0-1.479,0.521-2.734,1.562-3.77s2.301-1.553,3.779-1.553c1.081,0,2.07,0.299,2.969,0.898
		c0.898,0.6,1.549,1.4,1.953,2.402v-3.32h0.4v10.654h-0.4v-3.271c-0.397,1.002-1.046,1.802-1.948,2.397s-1.893,0.894-2.974,0.894
		c-1.491,0-2.754-0.516-3.789-1.548S62.25,21.803,62.25,20.312z M62.65,20.312c0,1.387,0.477,2.555,1.431,3.506
		s2.124,1.426,3.511,1.426c1.374,0,2.538-0.479,3.491-1.436s1.431-2.123,1.431-3.496s-0.477-2.537-1.431-3.491
		c-0.954-0.954-2.118-1.431-3.491-1.431s-2.541,0.477-3.501,1.431C63.13,17.775,62.65,18.939,62.65,20.312z"/>
	<path fill="#FFFFFF" d="M73.764,22.832V14.99h0.4v1.26h5.156v0.4h-5.156v6.182c0,0.664,0.233,1.229,0.698,1.694
		s1.034,0.698,1.704,0.698c0.651,0,1.206-0.229,1.665-0.688s0.688-1.015,0.688-1.665h0.4c-0.026,0.508-0.091,0.854-0.195,1.035
		c-0.202,0.533-0.536,0.953-1.001,1.26s-0.985,0.459-1.558,0.459c-0.775,0-1.436-0.273-1.982-0.82S73.764,23.6,73.764,22.832z"/>
	<path fill="#FFFFFF" d="M80.18,15.312c0-0.228,0.085-0.342,0.255-0.342c0.286,0,0.429,0.114,0.429,0.342s-0.114,0.338-0.342,0.332
		C80.293,15.645,80.18,15.534,80.18,15.312z M80.316,25.625v-8.857h0.264v8.857H80.316z"/>
	<path fill="#FFFFFF" d="M81.713,20.332c0-1.49,0.518-2.754,1.553-3.789s2.298-1.553,3.789-1.553s2.754,0.518,3.789,1.553
		s1.553,2.299,1.553,3.789s-0.518,2.752-1.553,3.784s-2.298,1.548-3.789,1.548s-2.754-0.516-3.789-1.548
		S81.713,21.822,81.713,20.332z M82.113,20.332c0,1.373,0.48,2.541,1.44,3.501s2.127,1.44,3.501,1.44s2.541-0.48,3.501-1.44
		s1.44-2.128,1.44-3.501s-0.48-2.541-1.44-3.501c-0.96-0.96-2.127-1.44-3.501-1.44s-2.541,0.48-3.501,1.44
		C82.593,17.791,82.113,18.959,82.113,20.332z"/>
	<path fill="#FFFFFF" d="M93.246,25.625V14.971h0.4v2.637c0.371-0.801,0.921-1.438,1.65-1.909c0.729-0.472,1.533-0.708,2.412-0.708
		c1.237,0,2.289,0.433,3.154,1.299c0.866,0.865,1.299,1.92,1.299,3.164v6.172h-0.391v-6.172c0-1.133-0.394-2.094-1.182-2.881
		c-0.788-0.788-1.748-1.182-2.881-1.182s-2.093,0.392-2.881,1.177c-0.788,0.784-1.182,1.747-1.182,2.886v6.172H93.246z"/>
	<path fill="#FFFFFF" d="M115.266,15.209v10.26h-1.836v-25.47H120c2.988,0,5.241,0.654,6.759,1.962s2.277,3.174,2.277,5.598
		c0,1.116-0.207,2.142-0.621,3.078s-1.011,1.743-1.791,2.421c-0.78,0.678-1.728,1.206-2.844,1.584
		c-1.116,0.378-2.376,0.567-3.78,0.567H115.266z M115.266,13.733H120c1.127,0,2.136-0.156,3.024-0.468
		c0.888-0.312,1.641-0.744,2.259-1.296c0.618-0.552,1.092-1.203,1.422-1.953c0.33-0.75,0.495-1.569,0.495-2.457
		c0-1.956-0.603-3.462-1.809-4.518c-1.206-1.056-3.003-1.584-5.391-1.584h-4.734V13.733z"/>
	<path fill="#FFFFFF" d="M131.335,25.625V14.971h0.4v5.215h7.861v-5.215h0.4v10.654h-0.4v-5.039h-7.861v5.039H131.335z"/>
	<path fill="#FFFFFF" d="M140.847,20.332c0-1.49,0.518-2.754,1.553-3.789s2.298-1.553,3.789-1.553s2.754,0.518,3.789,1.553
		s1.553,2.299,1.553,3.789s-0.518,2.752-1.553,3.784s-2.298,1.548-3.789,1.548s-2.754-0.516-3.789-1.548
		S140.847,21.822,140.847,20.332z M141.247,20.332c0,1.373,0.48,2.541,1.44,3.501s2.127,1.44,3.501,1.44s2.541-0.48,3.501-1.44
		s1.44-2.128,1.44-3.501s-0.48-2.541-1.44-3.501c-0.96-0.96-2.127-1.44-3.501-1.44s-2.541,0.48-3.501,1.44
		C141.727,17.791,141.247,18.959,141.247,20.332z"/>
	<path fill="#FFFFFF" d="M152.38,22.832V14.99h0.4v1.26h5.156v0.4h-5.156v6.182c0,0.664,0.233,1.229,0.698,1.694
		s1.034,0.698,1.704,0.698c0.651,0,1.206-0.229,1.665-0.688s0.688-1.015,0.688-1.665h0.4c-0.026,0.508-0.091,0.854-0.195,1.035
		c-0.202,0.533-0.536,0.953-1.001,1.26s-0.985,0.459-1.558,0.459c-0.775,0-1.436-0.273-1.982-0.82S152.38,23.6,152.38,22.832z"/>
	<path fill="#FFFFFF" d="M158.796,20.332c0-1.49,0.518-2.754,1.553-3.789s2.298-1.553,3.789-1.553s2.754,0.518,3.789,1.553
		s1.553,2.299,1.553,3.789s-0.518,2.752-1.553,3.784s-2.298,1.548-3.789,1.548s-2.754-0.516-3.789-1.548
		S158.796,21.822,158.796,20.332z M159.196,20.332c0,1.373,0.48,2.541,1.44,3.501s2.127,1.44,3.501,1.44s2.541-0.48,3.501-1.44
		s1.44-2.128,1.44-3.501s-0.48-2.541-1.44-3.501c-0.96-0.96-2.127-1.44-3.501-1.44s-2.541,0.48-3.501,1.44
		C159.676,17.791,159.196,18.959,159.196,20.332z"/>
	<path fill="#FFFFFF" d="M170.329,20.332c0-1.49,0.518-2.754,1.553-3.789s2.298-1.553,3.789-1.553c0.918,0,1.78,0.223,2.588,0.669
		c0.808,0.446,1.458,1.063,1.953,1.851l-0.342,0.195c-0.983-1.543-2.376-2.314-4.18-2.314c-0.006,0-0.013,0-0.02,0
		c-1.374,0-2.541,0.48-3.501,1.44c-0.96,0.96-1.44,2.128-1.44,3.501s0.48,2.541,1.44,3.501s2.127,1.44,3.501,1.44
		c1.335,0,2.479-0.457,3.433-1.372s1.457-2.04,1.509-3.374h-4.961v-0.4h5.361v0.205c0,1.49-0.518,2.752-1.553,3.784
		s-2.298,1.548-3.789,1.548c-1.491,0-2.754-0.516-3.789-1.548S170.329,21.822,170.329,20.332z"/>
	<path fill="#FFFFFF" d="M181.862,25.625V14.971l0.205,0.02h6.035c0.762,0,1.413,0.27,1.953,0.811
		c0.54,0.541,0.811,1.188,0.811,1.943c0,0.762-0.271,1.412-0.811,1.953s-1.191,0.811-1.953,0.811h-2.119l5.117,5.117h-0.557
		l-5.117-5.117h-3.164v5.117H181.862z M182.263,20.107h5.84c0.651,0,1.208-0.23,1.67-0.693s0.693-1.02,0.693-1.67
		s-0.231-1.206-0.693-1.665s-1.019-0.688-1.67-0.688h-5.84V20.107z"/>
	<path fill="#FFFFFF" d="M191.96,20.312c0-1.479,0.521-2.734,1.562-3.77s2.302-1.553,3.779-1.553c1.081,0,2.07,0.299,2.969,0.898
		c0.898,0.6,1.55,1.4,1.953,2.402v-3.32h0.4v10.654h-0.4v-3.271c-0.397,1.002-1.047,1.802-1.948,2.397s-1.893,0.894-2.974,0.894
		c-1.491,0-2.754-0.516-3.789-1.548S191.96,21.803,191.96,20.312z M192.36,20.312c0,1.387,0.477,2.555,1.431,3.506
		s2.124,1.426,3.511,1.426c1.374,0,2.537-0.479,3.491-1.436s1.431-2.123,1.431-3.496s-0.477-2.537-1.431-3.491
		c-0.954-0.954-2.117-1.431-3.491-1.431s-2.541,0.477-3.501,1.431C192.841,17.775,192.36,18.939,192.36,20.312z"/>
	<path fill="#FFFFFF" d="M203.474,25.625V14.971l0.205,0.02h6.035c0.762,0,1.413,0.269,1.953,0.806s0.811,1.187,0.811,1.948
		s-0.271,1.412-0.811,1.953s-1.191,0.811-1.953,0.811h-5.84v5.117H203.474z M203.874,20.107h5.84c0.651,0,1.208-0.23,1.67-0.693
		s0.693-1.02,0.693-1.67s-0.231-1.206-0.693-1.665s-1.019-0.688-1.67-0.688h-5.84V20.107z"/>
	<path fill="#FFFFFF" d="M213.327,25.625V14.971h0.4v5.215h7.861v-5.215h0.4v10.654h-0.4v-5.039h-7.861v5.039H213.327z"/>
	<path fill="#FFFFFF" d="M223.376,14.971h0.518l3.467,4.658l3.535-4.658h0.479l-3.818,5.02v5.635h-0.4l-0.039-5.693L223.376,14.971z
		"/>
	<path fill="#FFFFFF" d="M260.936,25.469h-1.422c-0.169,0-0.307-0.045-0.414-0.135c-0.108-0.09-0.192-0.207-0.252-0.352
		l-3.006-7.397h-12.511l-2.987,7.397c-0.049,0.133-0.133,0.246-0.252,0.342c-0.12,0.097-0.265,0.145-0.433,0.145h-1.404
		l10.423-25.47h1.836L260.936,25.469z M243.89,16.217h11.412L250.1,3.347c-0.084-0.204-0.168-0.435-0.252-0.693
		c-0.084-0.258-0.169-0.531-0.252-0.819c-0.084,0.288-0.169,0.561-0.252,0.819c-0.085,0.258-0.169,0.495-0.252,0.711L243.89,16.217z
		"/>
	<path fill="#FFFFFF" d="M262.046,21.709h0.4c0,2.344,1.321,3.516,3.965,3.516c0.944,0,1.735-0.191,2.373-0.576
		c0.762-0.481,1.143-1.162,1.143-2.04c0-0.813-0.354-1.425-1.064-1.835c-0.358-0.215-1.052-0.449-2.08-0.703
		c-0.521-0.117-1.413-0.372-2.676-0.764c-0.84-0.293-1.26-0.943-1.26-1.953c0-0.494,0.166-0.943,0.498-1.348
		c0.56-0.677,1.487-1.016,2.783-1.016c2.344,0,3.516,1.012,3.516,3.037h-0.4c0-1.758-1.038-2.637-3.115-2.637
		c-1.146,0-1.966,0.292-2.461,0.877c-0.28,0.33-0.42,0.69-0.42,1.08c0,0.799,0.34,1.32,1.019,1.567
		c0.307,0.116,1.146,0.351,2.521,0.7c1.118,0.295,1.912,0.582,2.38,0.863c0.774,0.484,1.161,1.193,1.161,2.129
		c0,1.016-0.42,1.791-1.26,2.324c-0.703,0.463-1.575,0.693-2.617,0.693c-0.013,0-0.026,0-0.039,0
		C263.508,25.625,262.053,24.32,262.046,21.709z"/>
	<path fill="#FFFFFF" d="M271.177,21.709h0.4c0,2.344,1.321,3.516,3.965,3.516c0.944,0,1.735-0.191,2.373-0.576
		c0.762-0.481,1.143-1.162,1.143-2.04c0-0.813-0.354-1.425-1.064-1.835c-0.358-0.215-1.052-0.449-2.08-0.703
		c-0.521-0.117-1.413-0.372-2.676-0.764c-0.84-0.293-1.26-0.943-1.26-1.953c0-0.494,0.166-0.943,0.498-1.348
		c0.56-0.677,1.487-1.016,2.783-1.016c2.344,0,3.516,1.012,3.516,3.037h-0.4c0-1.758-1.038-2.637-3.115-2.637
		c-1.146,0-1.966,0.292-2.461,0.877c-0.28,0.33-0.42,0.69-0.42,1.08c0,0.799,0.34,1.32,1.019,1.567
		c0.307,0.116,1.146,0.351,2.521,0.7c1.118,0.295,1.912,0.582,2.38,0.863c0.774,0.484,1.161,1.193,1.161,2.129
		c0,1.016-0.42,1.791-1.26,2.324c-0.703,0.463-1.575,0.693-2.617,0.693c-0.013,0-0.026,0-0.039,0
		C272.639,25.625,271.184,24.32,271.177,21.709z"/>
	<path fill="#FFFFFF" d="M280.308,20.332c0-1.49,0.518-2.754,1.553-3.789s2.298-1.553,3.789-1.553s2.754,0.518,3.789,1.553
		s1.553,2.299,1.553,3.789s-0.518,2.752-1.553,3.784s-2.298,1.548-3.789,1.548s-2.754-0.516-3.789-1.548
		S280.308,21.822,280.308,20.332z M280.708,20.332c0,1.373,0.48,2.541,1.44,3.501s2.127,1.44,3.501,1.44s2.541-0.48,3.501-1.44
		s1.44-2.128,1.44-3.501s-0.48-2.541-1.44-3.501c-0.96-0.96-2.127-1.44-3.501-1.44s-2.541,0.48-3.501,1.44
		C281.188,17.791,280.708,18.959,280.708,20.332z"/>
	<path fill="#FFFFFF" d="M291.841,20.312c0-1.479,0.521-2.734,1.562-3.77s2.302-1.553,3.779-1.553c0.918,0,1.777,0.223,2.578,0.669
		c0.801,0.446,1.448,1.063,1.943,1.851l-0.342,0.195c-0.456-0.723-1.053-1.289-1.792-1.699s-1.535-0.615-2.388-0.615
		c-1.374,0-2.541,0.477-3.501,1.431c-0.96,0.954-1.44,2.118-1.44,3.491c0,1.387,0.477,2.555,1.431,3.506s2.124,1.426,3.511,1.426
		c0.866,0,1.672-0.213,2.417-0.64s1.346-1.005,1.802-1.733l0.342,0.195c-0.495,0.801-1.146,1.431-1.953,1.89
		s-1.677,0.688-2.607,0.688c-1.491,0-2.754-0.516-3.789-1.548S291.841,21.803,291.841,20.312z"/>
	<path fill="#FFFFFF" d="M302.593,15.312c0-0.228,0.085-0.342,0.255-0.342c0.286,0,0.429,0.114,0.429,0.342
		s-0.114,0.338-0.342,0.332C302.707,15.645,302.593,15.534,302.593,15.312z M302.729,25.625v-8.857h0.264v8.857H302.729z"/>
	<path fill="#FFFFFF" d="M304.126,20.312c0-1.479,0.521-2.734,1.562-3.77s2.302-1.553,3.779-1.553c1.081,0,2.07,0.299,2.969,0.898
		c0.898,0.6,1.55,1.4,1.953,2.402v-3.32h0.4v10.654h-0.4v-3.271c-0.397,1.002-1.047,1.802-1.948,2.397s-1.893,0.894-2.974,0.894
		c-1.491,0-2.754-0.516-3.789-1.548S304.126,21.803,304.126,20.312z M304.526,20.312c0,1.387,0.477,2.555,1.431,3.506
		s2.124,1.426,3.511,1.426c1.374,0,2.537-0.479,3.491-1.436s1.431-2.123,1.431-3.496s-0.477-2.537-1.431-3.491
		c-0.954-0.954-2.117-1.431-3.491-1.431s-2.541,0.477-3.501,1.431C305.007,17.775,304.526,18.939,304.526,20.312z"/>
	<path fill="#FFFFFF" d="M315.64,22.832V14.99h0.4v1.26h5.156v0.4h-5.156v6.182c0,0.664,0.232,1.229,0.698,1.694
		s1.033,0.698,1.704,0.698c0.651,0,1.206-0.229,1.665-0.688s0.688-1.015,0.688-1.665h0.4c-0.026,0.508-0.091,0.854-0.195,1.035
		c-0.202,0.533-0.535,0.953-1.001,1.26s-0.984,0.459-1.558,0.459c-0.774,0-1.436-0.273-1.982-0.82S315.64,23.6,315.64,22.832z"/>
	<path fill="#FFFFFF" d="M322.056,15.312c0-0.228,0.085-0.342,0.255-0.342c0.286,0,0.429,0.114,0.429,0.342
		s-0.114,0.338-0.342,0.332C322.17,15.645,322.056,15.534,322.056,15.312z M322.192,25.625v-8.857h0.264v8.857H322.192z"/>
	<path fill="#FFFFFF" d="M323.589,20.332c0-1.49,0.518-2.754,1.553-3.789s2.298-1.553,3.789-1.553s2.754,0.518,3.789,1.553
		s1.553,2.299,1.553,3.789s-0.518,2.752-1.553,3.784s-2.298,1.548-3.789,1.548s-2.754-0.516-3.789-1.548
		S323.589,21.822,323.589,20.332z M323.989,20.332c0,1.373,0.48,2.541,1.44,3.501s2.127,1.44,3.501,1.44s2.541-0.48,3.501-1.44
		s1.44-2.128,1.44-3.501s-0.48-2.541-1.44-3.501c-0.96-0.96-2.127-1.44-3.501-1.44s-2.541,0.48-3.501,1.44
		C324.47,17.791,323.989,18.959,323.989,20.332z"/>
	<path fill="#FFFFFF" d="M335.122,25.625V14.971h0.4v2.637c0.371-0.801,0.921-1.438,1.65-1.909c0.729-0.472,1.533-0.708,2.412-0.708
		c1.237,0,2.288,0.433,3.154,1.299c0.866,0.865,1.299,1.92,1.299,3.164v6.172h-0.391v-6.172c0-1.133-0.394-2.094-1.182-2.881
		c-0.788-0.788-1.748-1.182-2.881-1.182s-2.093,0.392-2.881,1.177c-0.788,0.784-1.182,1.747-1.182,2.886v6.172H335.122z"/>
</g>
<g>
</g>
<g>
</g>
<g>
</g>
<g>
</g>
<g>
</g>
<g>
</g>
<g>
</g>
<g>
</g>
<g>
</g>
<g>
</g>
<g>
</g>
<g>
</g>
<g>
</g>
<g>
</g>
<g>
</g>
</svg>
