<?xml version="1.0" encoding="utf-8"?>
<!-- Generator: Adobe Illustrator 16.0.4, SVG Export Plug-In . SVG Version: 6.00 Build 0)  -->
<!DOCTYPE svg PUBLIC "-//W3C//DTD SVG 1.1//EN" "http://www.w3.org/Graphics/SVG/1.1/DTD/svg11.dtd">
<svg version="1.1" id="图层_1" xmlns="http://www.w3.org/2000/svg" xmlns:xlink="http://www.w3.org/1999/xlink" x="0px" y="0px"
	 width="50px" height="30px" viewBox="0 0 50 30" enable-background="new 0 0 50 30" xml:space="preserve">
<g>
	<path fill="#FFFFFF" d="M0.007,30V0.008h3.969V30H0.007z"/>
</g>
<g>
	<path fill="#FFFFFF" d="M10.058,30V0.007h9.268c2.182,0,3.791,0.191,4.828,0.573c1.419,0.519,2.551,1.48,3.396,2.885
		s1.269,3.13,1.269,5.176c0,2.701-0.689,4.904-2.066,6.608c-1.378,1.705-3.758,2.558-7.141,2.558h-6.301V30H10.058z M13.311,14.267
		h6.363c2.005,0,3.471-0.453,4.398-1.36s1.392-2.274,1.392-4.102c0-1.187-0.229-2.203-0.686-3.049
		c-0.457-0.845-1.01-1.425-1.657-1.739c-0.648-0.313-1.817-0.471-3.509-0.471h-6.301V14.267z"/>
</g>
<g>
	<path fill="#FFFFFF" d="M26.995,30L36.48,0.008h3.479L50.032,30h-3.724l-2.861-9.084H33.101L30.427,30H26.995z M34.052,17.684
		h8.378l-2.557-8.306c-0.79-2.55-1.37-4.624-1.738-6.22c-0.317,1.923-0.767,3.833-1.347,5.729L34.052,17.684z"/>
</g>
<g>
</g>
<g>
</g>
<g>
</g>
<g>
</g>
<g>
</g>
<g>
</g>
<g>
</g>
<g>
</g>
<g>
</g>
<g>
</g>
<g>
</g>
<g>
</g>
<g>
</g>
<g>
</g>
<g>
</g>
</svg>
